# AST/ASF file generated using VICON BodyLanguage
# -----------------------------------------------
:version 1.10
:name VICON
:units
  mass 1.0
  length 0.45
  angle deg
:documentation
   .ast/.asf automatically generated from VICON data using
   VICON BodyBuilder and BodyLanguage model FoxedUp or BRILLIANT.MOD
:root
   order TX TY TZ RX RY RZ
   axis XYZ
   position 0 0 0  
   orientation 0 0 0 
:bonedata
  begin
     id 1 
     name lhipjoint
     direction 0.561145 -0.797705 0.220866 
     length 2.46425 
     axis 0 0 0  XYZ
  end
  begin
     id 2 
     name lfemur
     direction 0.34202 -0.939693 0  
     length 7.95556  
     axis 0 0 20  XYZ
    dof rx ry rz
    limits (-160.0 20.0)
           (-70.0 70.0)
           (-60.0 70.0)
  end
  begin
     id 3 
     name ltibia
     direction 0.34202 -0.939693 0   
     length 7.9832   
     axis 0 0 20   XYZ
    dof rx
    limits (-10.0 170.0)
  end
  begin
     id 4 
     name lfoot
     direction 0.0723927 -0.198897 0.977343   
     length 2.23085   
     axis -90 7.62852e-016 20   XYZ
    dof rx rz
    limits (-45.0 90.0)
           (-70.0 20.0)
  end
  begin
     id 5 
     name ltoes
     direction 1.53826e-011 -4.21988e-011 1   
     length 1.12127   
     axis -90 7.62852e-016 20   XYZ
    dof rx
    limits (-90.0 20.0)
  end
  begin
     id 6 
     name rhipjoint
     direction -0.610499 -0.763299 0.21134   
     length 2.57533  
     axis 0 0 0  XYZ 
  end
  begin
     id 7 
     name rfemur
     direction -0.34202 -0.939693 0   
     length 8.65257   
     axis 0 0 -20   XYZ
    dof rx ry rz
    limits (-160.0 20.0)
           (-70.0 70.0)
           (-70.0 60.0)
  end
  begin
     id 8 
     name rtibia
     direction -0.342021 -0.939692 0   
     length 7.37807   
     axis 0 0 -20   XYZ
    dof rx
    limits (-10.0 170.0)
 end
 begin
     id 9 
     name rfoot
     direction -0.0239304 -0.0543852 0.998233   
     length 1.87018  
     axis -90 -7.62852e-016 -20   XYZ
    dof rx rz
    limits (-45.0 90.0)
           (-20.0 70.0)
  end
  begin
     id 10 
     name rtoes
     direction -1.53584e-011 -4.2242e-011 1   
     length 0.951568   
     axis -90 -7.62852e-016 -20   XYZ
    dof rx
    limits (-90.0 20.0)
  end
  begin
     id 11 
     name lowerback
     direction 0.00322089 0.999033 0.0438587   
     length 2.07568   
     axis 0 0 0   XYZ
    dof rx ry rz
    limits (-20.0 45.0)
           (-30.0 30.0)
           (-30.0 30.0)
  end
  begin
     id 12 
     name upperback
     direction -0.00321932 0.999732 -0.0229403   
     length 2.06253   
     axis 0 0 0   XYZ
    dof rx ry rz
    limits (-20.0 45.0)
           (-30.0 30.0)
           (-30.0 30.0)
  end
  begin
     id 13 
     name thorax
     direction -0.00537537 0.998955 -0.0453918   
     length 2.06975   
     axis 0 0 0   XYZ
    dof rx ry rz
    limits (-20.0 45.0)
           (-30.0 30.0)
           (-30.0 30.0)
  end
  begin
     id 14 
     name lowerneck
     direction -0.00013604 0.994111 0.108363   
     length 1.50836   
     axis 0 0 0   XYZ
    dof rx ry rz
    limits (-20.0 45.0)
           (-30.0 30.0)
           (-30.0 30.0)
  end
  begin
     id 15 
     name upperneck
     direction 0.0397262 0.983859 -0.174482   
     length 1.53037   
     axis 0 0 0   XYZ
    dof rx ry rz
    limits (-20.0 45.0)
           (-30.0 30.0)
           (-30.0 30.0)
  end
  begin
     id 16
     name head
     direction 0.0109991 0.997082 -0.0755378  
     length 1.56928  
     axis 0 0 0   XYZ
    dof rx ry rz
    limits (-20.0 45.0)
           (-30.0 30.0)
           (-30.0 30.0)
  end
  begin
     id 17 
     name lclavicle
     direction 0.964749 0.254 -0.068874  
     length 3.26503  
     axis 0 0 0   XYZ
    dof ry rz
    limits (-20.0 10.0)
           (0.0 20.0)
  end
  begin
     id 18 
     name lhumerus
     direction 1 -4.48941e-011 -2.05079e-027   
     length 5.68236   
     axis 180 -30 -90   XYZ
    dof rx ry rz
    limits (-60.0 90.0)
           (-90.0 90.0)
           (-90.0 90.0)
  end
  begin
     id 19
     name lradius
     direction 1 -4.48956e-011 6.2882e-027   
     length 3.17112   
     axis 180 -30 -90   XYZ
    dof rx
    limits (-10.0 170.0)
  end
  begin
     id 20
     name lwrist
     direction 1 -4.49014e-011 1.73219e-026   
     length 1.58556   
     axis -1.04724e-014 90 90   XYZ
    dof ry
    limits (-180.0 0.0)
 end
  begin
     id 21 
     name lhand
     direction 1 -4.49312e-011 3.46438e-026   
     length 0.632691   
     axis -2.21057e-014 90 90   XYZ
    dof rx rz
    limits (-90.0 90.0)
           (-45.0 45.0)
  end
  begin
     id 22 
     name lfingers
     direction 1 -4.48894e-011 6.92876e-026   
     length 0.510091   
     axis -4.42114e-014 90 90   XYZ
    dof rx
    limits (0.0 90.0)
  end
  begin
     id 23
     name lthumb
     direction 0.707107 -6.34705e-011 0.707107   
     length 0.732392   
     axis -90 45 2.85299e-015   XYZ
    dof rx rz
    limits (-45.0 45.0)
           (-45.0 45.0)
  end
  begin
     id 24 
     name rclavicle
     direction -0.954374 0.280496 -0.102435   
     length 3.25419  
     axis 0 0 0   XYZ 
    dof ry rz
    limits (-10.0 20.0)
           (-20.0 0.0)
  end
  begin
     id 25 
     name rhumerus
     direction -1 -4.48994e-011 -1.07204e-017  
     length 5.8712   
     axis 180 30 90   XYZ
    dof rx ry rz
    limits (-90.0 60.0)
           (-90.0 90.0)
           (-90.0 90.0)
  end
  begin
     id 26 
     name rradius
     direction -1 -4.48972e-011 5.89292e-027   
     length 3.37589   
     axis 180 30 90   XYZ
    dof rx
    limits (-10.0 170.0)
  end
  begin
     id 27 
     name rwrist
     direction -1 -4.48942e-011 1.73219e-026   
     length 1.68794   
     axis -1.04724e-014 -90 -90   XYZ
    dof ry
    limits (-180.0 0.0)
  end
  begin
     id 28
     name rhand
     direction -1 -4.48514e-011 3.46438e-026   
     length 0.603257   
     axis -2.21057e-014 -90 -90   XYZ
    dof rx rz
    limits (-90.0 90.0)
           (-45.0 45.0)
  end
  begin
     id 29
     name rfingers
     direction -1 -4.50028e-011 6.92876e-026   
     length 0.486362   
     axis -4.42114e-014 -90 -90   XYZ
    dof rx
    limits (0.0 90.0)
  end
  begin
     id 30
     name rthumb
     direction -0.707107 -6.34926e-011 0.707107   
     length 0.698321   
     axis -90 -45 -2.85299e-015   XYZ
    dof rx rz
    limits (-45.0 45.0)
           (-45.0 45.0)
  end
:hierarchy
  begin
    root lhipjoint rhipjoint lowerback
    lhipjoint lfemur
    lfemur ltibia
    ltibia lfoot
    lfoot ltoes
    rhipjoint rfemur
    rfemur rtibia
    rtibia rfoot
    rfoot rtoes
    lowerback upperback
    upperback thorax
    thorax lowerneck lclavicle rclavicle
    lowerneck upperneck
    upperneck head
    lclavicle lhumerus
    lhumerus lradius
    lradius lwrist
    lwrist lhand lthumb
    lhand lfingers
    rclavicle rhumerus
    rhumerus rradius
    rradius rwrist
    rwrist rhand rthumb
    rhand rfingers
  end

#!OML:ASF I:\Segmentation\Patient Classification 1\Patient 1\Session 1\Patient1.ASF
:FULLY-SPECIFIED
:DEGREES
1431
root 18.5977 17.8905 -3.7354 -359.189 -81.7612 -347.799
lowerback -6.74531 1.03599 -0.109866
upperback 1.05108 1.281 2.00975
thorax 4.8278 0.596558 2.28577
lowerneck -18.015 -4.78922 -5.30174
upperneck 16.5325 -5.93506 3.73844
head 8.37901 -2.77104 1.37497
rclavicle 2.78299e-015 7.95139e-016
rhumerus -23.3774 -1.17275 -76.1832
rradius 36.8625
rwrist 14.3103
rhand -14.9989 28.8554
rfingers 7.12502
rthumb 11.1658 -0.82747
lclavicle 2.78299e-015 7.95139e-016
lhumerus -32.1258 -3.68371 89.2225
lradius 34.8191
lwrist 17.8075
lhand -12.1297 33.506
lfingers 7.12502
lthumb 13.932 63.0192
rfemur -33.1784 5.75053 21.3177
rtibia 43.4846
rfoot -2.92612 14.4423
rtoes 42.0401
lfemur -38.1913 3.58406 -20.4123
ltibia 62.6739
lfoot -19.3304 8.96628
ltoes -16.5158
1432
root 18.5025 17.8814 -3.73694 -358.272 -81.7129 -348.774
lowerback -6.7351 1.05439 -0.00294642
upperback 1.0818 1.29254 2.06417
thorax 4.85482 0.60368 2.2838
lowerneck -18.0643 -4.79961 -5.23376
upperneck 16.5339 -5.93456 3.59405
head 8.3811 -2.78045 1.31471
rclavicle 4.55217e-014 -5.56597e-015
rhumerus -23.0613 -0.470613 -76.2985
rradius 37.6533
rwrist 13.7393
rhand -15.1424 28.9472
rfingers 7.12502
rthumb 11.0274 -0.743127
lclavicle 4.55217e-014 -5.56597e-015
lhumerus -32.2832 -3.5967 89.4013
lradius 34.9715
lwrist 18.1039
lhand -12.4499 33.5835
lfingers 7.12502
lthumb 13.6234 63.1177
rfemur -32.77 5.86918 21.5395
rtibia 43.5134
rfoot -3.04156 14.504
rtoes 41.9745
lfemur -38.8447 3.29771 -20.2907
ltibia 61.7904
lfoot -19.7179 8.879
ltoes -17.0268
1433
root 18.4096 17.8779 -3.73772 -357.351 -81.6803 -349.695
lowerback -6.73624 1.05471 0.0694815
upperback 1.08863 1.28177 2.14064
thorax 4.86299 0.598633 2.32162
lowerneck -18.033 -4.80184 -5.22394
upperneck 16.4186 -5.9189 3.50918
head 8.33291 -2.78143 1.28799
rclavicle -5.1684e-015 2.06736e-014
rhumerus -22.7475 0.276516 -76.3821
rradius 38.4088
rwrist 13.183
rhand -15.4871 29.1874
rfingers 7.12502
rthumb 10.6949 -0.520361
lclavicle -5.1684e-015 2.06736e-014
lhumerus -32.4543 -3.43644 89.5752
lradius 35.1179
lwrist 18.2653
lhand -12.9529 33.7651
lfingers 7.12502
lthumb 13.1386 63.3311
rfemur -32.4234 5.82785 21.7707
rtibia 43.5158
rfoot -3.01841 14.6079
rtoes 42.1998
lfemur -39.5377 2.96596 -20.1712
ltibia 60.8703
lfoot -20.2551 8.75092
ltoes -16.7242
1434
root 18.3211 17.874 -3.73735 -356.515 -81.7016 -350.403
lowerback -6.76102 1.09609 0.175591
upperback 1.01634 1.32703 2.16158
thorax 4.80176 0.624077 2.28768
lowerneck -17.9808 -4.82667 -5.27686
upperneck 16.3562 -5.94892 3.55757
head 8.30741 -2.79469 1.31016
rclavicle 3.63776e-014 3.97569e-014
rhumerus -22.657 0.979745 -76.4719
rradius 39.3363
rwrist 12.6355
rhand -15.6833 29.2093
rfingers 7.12502
rthumb 10.5056 -0.50819
lclavicle 3.63776e-014 3.97569e-014
lhumerus -32.7025 -3.25497 89.6362
lradius 35.2221
lwrist 18.0037
lhand -12.7656 33.7032
lfingers 7.12502
lthumb 13.3191 63.2576
rfemur -32.2375 5.72264 21.9505
rtibia 43.4879
rfoot -2.90149 14.776
rtoes 42.3603
lfemur -40.3724 2.65851 -20.0977
ltibia 59.892
lfoot -20.7629 8.76543
ltoes -16.5299
1435
root 18.2313 17.8688 -3.7373 -356.522 -81.669 -350.33
lowerback -6.70153 1.15958 0.253839
upperback 0.95684 1.41253 2.06525
thorax 4.70702 0.671185 2.14968
lowerneck -18.0228 -4.86645 -5.19776
upperneck 16.3693 -6.0303 3.59355
head 8.32155 -2.82377 1.29803
rclavicle 0 -1.35174e-014
rhumerus -22.5369 1.39711 -76.6277
rradius 40.2232
rwrist 12.2211
rhand -15.8676 29.0313
rfingers 7.12502
rthumb 10.3279 -0.695129
lclavicle 0 -1.35174e-014
lhumerus -32.9191 -3.20219 89.6212
lradius 35.2489
lwrist 17.7487
lhand -12.4536 33.6256
lfingers 7.12502
lthumb 13.6198 63.16
rfemur -31.932 5.48721 22.0426
rtibia 43.4246
rfoot -2.76907 15.0798
rtoes 42.3906
lfemur -41.0752 2.27874 -20.1465
ltibia 58.8174
lfoot -21.2058 8.99077
ltoes -17.0052
1436
root 18.1371 17.8711 -3.73918 -356.497 -81.5885 -350.432
lowerback -6.61168 1.14857 0.244098
upperback 0.986247 1.40018 2.05735
thorax 4.68722 0.665104 2.1438
lowerneck -18.0342 -4.87343 -5.19566
upperneck 16.2934 -6.04504 3.63773
head 8.30005 -2.82578 1.31082
rclavicle 2.38542e-015 -7.95139e-015
rhumerus -22.211 1.8741 -76.7355
rradius 40.9467
rwrist 11.865
rhand -16.0673 29.0163
rfingers 7.12502
rthumb 10.1352 -0.719633
lclavicle 2.38542e-015 -7.95139e-015
lhumerus -33.0458 -3.11797 89.7164
lradius 35.254
lwrist 17.8401
lhand -12.3383 33.4005
lfingers 7.12502
lthumb 13.731 62.9274
rfemur -31.4099 5.21838 22.1973
rtibia 43.3291
rfoot -2.70122 15.399
rtoes 42.3126
lfemur -41.5193 1.91907 -20.1587
ltibia 57.6372
lfoot -21.5073 9.20595
ltoes -17.6608
